# xmcd CD database file generated by Grip 3.0.0
# 
# Track frame offsets:
#       187
#       12387
#       24962
#       40335
#       59297
#       72267
#       85497
#       104357
#       116502
#       126145
# 
# Disc length: 1903 seconds
# 
# Revision: 4
# Processed by: cddbd v1.4PL0 Copyright (c) Steve Scherf et al.
# Submitted via: Grip 3.0.0
# 
DISCID=81076d0a
DTITLE=Clint Black - One Emotion
DYEAR=1994
DGENRE=Country
TTITLE0=One Emotion
TTITLE1=Summer's Comin'
TTITLE2=Untanglin' My Mind
TTITLE3=Wherever You Go
TTITLE4=A Change In The Air
TTITLE5=Life Gets Away
TTITLE6=I Can Get By
TTITLE7=Hey Hot Rod
TTITLE8=You Walked By
TTITLE9=You Made Me Feel
EXTD=
EXTT0=
EXTT1=
EXTT2=
EXTT3=
EXTT4=
EXTT5=
EXTT6=
EXTT7=
EXTT8=
EXTT9=
PLAYORDER=
